<svg fill="none" height="19" viewBox="0 0 302 19" width="302" xmlns="http://www.w3.org/2000/svg"><path d="m290.07 1.31209c2.917-.605583 5.833-.605583 8.568.10093 1.094.30278 2.37.20185 3.281.80743.182.10093 0 .40372 0 .40372-.365.10093-.729.20186-1.094.30279-7.291.30279-14.401.70651-21.51 1.11023-9.661.60557-19.505.80743-29.166 1.31208-5.469.30279-11.12.40372-16.589.60558-5.651.20186-11.302.50465-16.953.80743-4.01.10093-7.838.30279-11.848.50465-5.287.20186-10.755.40372-16.224.60558-5.651.20186-11.302.50465-16.953.70651-4.557.20186-9.115.50464-13.854.7065-6.016.30279-11.849.60558-17.864.90838-4.558.2018-8.933.4037-13.49.6056-3.828.2018-7.474.4037-11.302.6055-4.557.3028-8.932.5047-13.489.8075-5.2867.3028-10.7553.7065-16.0417 1.1102-8.7499.7065-17.4999 1.514-26.432 2.2205-7.6562.6055-15.3124 1.312-22.9686 1.9176-7.2915.5047-14.4008 1.0093-21.6924 1.413-2.9166.2019-5.83328.101-8.74991.101-2.00518 0-3.64578-.4038-4.92181-1.3121-.546875-.4037-.911468-.8075-.7291869-1.3121.1823119-.5047.7291869-1.0093 1.6406269-1.1102 3.09894-.3028 6.01556-.8075 9.11448-.9084 1.0937 0 2.0052-.1009 3.0989-.2019 6.3802-.6055 12.9426-1.2111 19.3227-1.8167 6.5625-.6056 13.3072-1.1102 19.8696-1.6149 1.0937-.1009 2.0052-.2018 3.0989-.1009 2.3698.1009 4.5572-.2019 6.927-.60557.9115-.10093 1.6406-.20186 2.5521-.30279 4.7395-.20186 9.2967-.70651 13.854-1.21116 3.2812-.30279 6.5624-.60557 10.0259-.80743 4.9218-.30279 9.8436-.60558 14.7654-.70651 2.37 0 4.557-.30279 6.927-.50465 1.823-.10093 3.828-.30279 5.651-.40372 6.016-.30279 11.849-.60558 17.864-.80743 6.016-.20186 12.214-.40372 18.594-.60558 3.099-.20186 6.38-.40372 9.479-.60558 1.823-.10093 3.464-.20186 5.286-.30279.547 0 1.094 0 1.823-.10093 4.011-.40372 8.203-.30279 12.214-.50465 2.187 0 4.557-.10092 6.744-.20185 7.11-.30279 14.219-.70651 21.328-.90837 2.917-.10093 5.834-.10093 8.75-.10093 1.276 0 2.552 0 3.828-.20186 2.917-.40372 6.016-.60558 9.115-.70651 8.021-.403715 15.859-.706503 23.697-1.00929203 1.276.00000006 2.552.00000011 4.011.00000018 1.823.00000008 3.463.10092985 5.286.20185985 5.833.201859 11.667.10093 17.5.10093 3.464 0 3.646 0 7.656 1.009302z" fill="#efed70"/></svg>