<svg fill="none" height="21" viewBox="0 0 170 21" width="170" xmlns="http://www.w3.org/2000/svg"><g fill="#fbc61d"><path d="m123.072 6.4c-1.3.5-2.6 1.1-3.8 1.6-.1.3-.1.4.1.4 1-.2 2-.1 3 .2.4.3.8.5 1.1.8v.2c0 .1-.1.2-.1.2-.4 0-.8.1-1.2.1-1.3-.1-2.5-.2-3.8-.2-1.4.1-2.7.4-3.5 1.7 0 .1-.1.1-.2.2-.8.8-2.1.5-2.5-.6 0-.1 0-.2-.1-.2-.1-.5 0-.8.4-.9.5-.1.9-.2 1.4-.4 0-.1.1-.2.1-.2-.4-1.6-.5-1.6-2-.9-.6.3-1.2.4-1.8.7-.3.1-.3.5.1.9-.2.2-.3.4-.5.5-1.2.4-2.5.6-3.8.5-.6-.1-1.1.1-1.6.4-.2.1-.4.3-.6.4-.4.2-.7.2-1.2.1-.2-.1-.5-.2-.7-.2-.3 0-.4.1-.5.4-.1.2-.2.4-.3.7-1 .1-1.9999.5-3.0999.5-.4 0-.8.1-1.2.2-.8.2-1.2-.1-1.6-.7-.1-.1-.2-.3-.3-.4-.3-.3-.9-.2-1 .1-.2.7-.6 1.1-1.2 1.3-.8.3-1.5.5-2.3.5-1.2 0-2.4.1-3.5.4-1 .3-2.1.3-3.1 0-.5-.1-1.1-.1-1.7-.2-.4-.1-.7-.3-1-.6-.4-.6-.4-.6-1 0-.7.6-1.5 1.1-2.3 1.7-.2.2-.6.2-.9.2-.5 0-.9-.2-1.4-.2-.3 0-.7-.1-.9 0-.8.3-1.7.4-2.6.4s-1.7.1-2.6.2c-.2 0-.3 0-.5 0-2.3.7-4.8.4-7.1.9-.4.1-.8 0-1.2 0-1.8-.1-3.5-.1-5.2.3-.7.2-1.4.1-2.1.2-.6 0-1.3 0-1.9.1-3.5.5-7 .7-10.5.9-3.1.2-6.2.3-9.3.4-2.8.1-5.6.4-8.4.6-.6 0-1.1.1-1.7.1s-1.3 0-1.9.1c-1.9.3-3.8.2-5.7.4-.3 0-.7.1-1 0-1.1-.3-2.2-.2-3.29996 0-.7.1-1.39999 0-2.19999 0-.7 0-1.40001-.2-2.00001-.6-.9-.6-1.80001-1.1-2.70001-1.5-1.3-.7-1.999992-1.7-2.299991-3.2-.1-.4-.200004-.8-.3000035-1.2-.1999995-.9.0000032-1.7.8000035-2.3.1-.1.299991-.2.399991-.3.3-.2.4-.5.4-.8 0-.40001.10001-.60001.40001-.80001.5-.4 1.09999-.8 1.59999-1 1.6-.6 3.3-1.2 5-1.8.2-.1.3-.1.5-.1 1.99997-.2 3.89997-.7 5.89997-.9.7 0 1.4-.1 2.2-.1 3.8 0 7.5-.1 11.3-.3 2.7-.1 5.4-.2 8.2-.3h.2c1.8.2 3.5.20001 5.3.00001.5 0 .9 0 1.4.2 1 .4 2.1.3 3-.1.6-.3 1.2-.3 1.9-.2.8.2 1.6.1 2.4-.2 1.5-.6 3-.3 4.5-.4.2 0 .3 0 .5.1.9.4 1.8.4 2.8.3 1.5-.1 3-.2 4.5-.7.5-.2 1.1-.1 1.7-.1 1.2.1 2.4.2 3.6-.2.8-.2 1.6-.3 2.4-.2.5.1 1 .1 1.4.1 2.9-.3 5.9-.4 8.8-.6 3.6-.6 7.4-.8 11.2-1 1.4-.1 2.7-.2 4.1-.3.7-.1 1.4 0 2.1-.1.1 0 .2.1.2.1.1.2 0 .3-.2.4-.7.1-1.4.2-2.1.3-.6.1-.9.6-.9 1.3 0 .4.3.7.8.7.6-.1 1.1-.2 1.5-.6s.9-.6 1.5-.6c.3 0 .6999.1.8999-.1 1.7-.7 3.5-.5 5.2-.8.5-.1.8.1.8.3 0 .4-.3.6-.5.7-.3.2-.5.4-.8.5-.2.1-.1.5.2.6.2.1.5.1.7.1.3 0 .5-.1.6-.3.2-.9.9-1.2 1.6-1.2 1 0 2-.3 3.1.1.5.2 1.1.1 1.7.2.2 0 .4.2.5.5 0 .3-.2.7-.4.8s-.4.2-.7.2c-.5.1-1.1.3-1.6.4-.2.1-.5 0-.6.3 0 .3.3.3.5.4.3.2.3.5.1.6s-.4.2-.6.3-.4.2-.6.3c-.3.2-.4.6-.2.8s.4.3.6.2c.2 0 .5-.1.7-.2.7-.3 1.7-.7 2.5-1.3v-.1c.5.1 1-.1 1.1-.6.1-.2.1-.5.2-.7.2-.4.4-.7.9-.6h.5c.3 0 .7-.1.8-.4.4-1 1.2-1.2 2.1-1.3h.5c1.1-.1 2-.4 2.9-1.1.3-.3.3-.2.8.3.1.1.2.3.3.3.3.2.7.4 1 .5.8-.2 1.5-.4 2.1-.6.2-.1.5-.1.7-.2.8-.7 1.6-.6 2.4-.2.4.2.8.1 1.1-.2.3-.2.5-.4.7-.6.6.3 1.1.7 1.8.6.5 0 1.1 0 1.7.1-.1.2-.1.2-.1.3-.4.6-.4.6-.1 1 .1.1.3.2.4.3s.1.3 0 .4c-.4.5-.9.7-1.4.8-.1 0-.3-.2-.3-.3-.1-.5 0-.9-.1-1.4 0-.1-.3-.2-.4-.2-.2.1-.5.2-.6.3-.4.8-1.2.9-1.9.7-.9-.2-1.7-.1-2.6-.2h.1c-.3-.1-.5-.3-.8-.4s-.6-.2-.9-.2c-.1.2-.1.2-.1 0h.1c0 .3-.1.6-.1.9 0 .2.3.4.2.6-.2.3-.4.5-.6.7-.1.1-.4.1-.4 0-.3-.5-.6-.7-1.2-.5-.6.3-1.2.3-1.9.2-.4-.1-.4 0-1.1.3.4.4.9.2 1.3.2.6.4.8.7.9 1.1zm-16.3 2.9h.2c.4 0 .7-.3.5-.6-.3-.6-.4-1.3-.6-2 0-.2-.5-.3-.6-.1-.2.2-.5.4-.7.6-.1.2-.2.5-.2.6.1.4.3.7.5 1.1.2.3.5.4.9.4zm-5.7-5.4c.6.4 1.2.3 1.7-.1 0 0 .1-.1.1-.2s-.1-.2-.1-.2c-.7-.2-1.3 0-1.7.5zm-.1 5.3c0-.1 0-.2-.1-.2-.4-.3-.7-.1-1.0999-.1-.1 0-.1.1-.1.2s.1.2.1.2c.2999.1.5999.2.8999.2.1 0 .2-.2.3-.3zm-13.4999-4.4c-.1-.1-.2-.3-.3-.3-.2 0-.4.2-.6.3v.2c.2 0 .4.1.6.1.1 0 .2-.2.3-.3zm10.3 5c.2-.1.2-.2.1-.3 0 0-.1-.1-.2 0-.2.1-.2.2-.1.3.1 0 .2-.1.2 0zm-8.8 2.8s0 .1-.1.1h.2s0-.1.1-.1c-.1 0-.1 0-.2 0zm4.2-8.8c.2 0 .3-.1.3-.2s-.2-.1-.4-.1c-.1 0-.2.1-.2.1 0 .1.1.2.3.2zm.5 3.5c.1.1.1.2.1.3 0 0 .1.1.2.1.3 0 .5-.2.4-.3 0-.1-.1-.1-.2-.1-.1-.1-.3-.1-.5 0zm23.2999 1-.2-.1v.2z"/><path d="m143.072 4.4c-.9.1-1.7.2-2.6.3-1.2 0-2.4.3-3.3 1.2-.1.2-.4.2-.6.2-.1 0-.2-.1-.3-.2 0 0-.1-.2 0-.2.2-.7.4-1.4.6-2 .2-.7.9-.8 1.5-.3.2.2.4.5.6.7l.1-.1h-.1c.7-.4 1.5-.6 2.3-.5h1.7c.2 0 .5-.1.7-.2.3-.1.3-.7.1-.8-.3-.2-.5-.3-.8-.5-.1-.2 0-.3.2-.3.7-.1 1.4-.2 2.2-.3.5.5 1.1.9 1.6 1.3 1.3.3 2.6 0 3.8.1 0 0 .1.1.1.2s-.1.2-.1.2c-1.3.1-2.7.2-4 .3-.7.1-1.4.2-2.1.3-.8-.1-1.3.2-1.6.6zm-2.1-.5c-.2-.1-.3 0-.2.2h.2s0-.1 0-.2z"/><path d="m129.272 8.4c-.2.6-.6.9-1.3.8-.3-.1-.7-.2-1.1-.4.1-.4.3-.6.3-.9.1-.4-.1-.7-.5-.7-.5 0-.9.1-1.4.1-.1 0-.3-.1-.4-.1l-.1-.2c.7-.5 1.3-1.1 2-1.6.2-.2.6-.2.9-.2.1 0 .4 0 .4.1.3.8 1.2 1.3.9 2.3 0 .1 0 .3.1.5.1.1.2.2.2.3z"/><path d="m155.572 4.9c.4-.7.9-1 1.4-1.4.4-.3 1.2-.2 1.5.2.4.4.6 1 .3 1.5s-.5.9-.5 1.5c0 .3-.6.4-.8.2-.5-.7-1.1-1.3-1.9-2z"/><path d="m165.672 2c-.2.5-.4 1-.6 1.5-.3.5-.7.7-1.1.8-.1 0-.3-.1-.4-.2s-.1-.3 0-.4c0-.1.2-.2.3-.3.5-.5.5-.5-.2-1-.1 0-.1-.1-.2-.2 0-.1 0-.1 0-.2s.1-.2.1-.2c.8-.2 1.4-.1 2.1.2z"/><path d="m133.872 8h1.5c.2 0 .4.2.4.5s-.2.7-.5.7c-.2 0-.5 0-.7-.1-.3-.1-.6 0-.9.1-.2.1-.5.2-.6-.1-.2-.4-.6-.5-.9-.7 0 0-.1-.1 0-.2 0-.1.1-.2.2-.2z"/><path d="m133.972 5.7c.2 0 .3 0 .5.1.2 0 .3.2.2.3 0 .1-.1.2-.1.2-.5.3-1 .4-1.6.3-.1 0-.2-.1-.2-.2s0-.3.1-.4c.3-.3.8-.3 1.1-.3z"/><path d="m142.272 8.1c-.2-.1-.3-.1-.5-.1-.1 0-.2-.1-.1-.2 0-.1.1-.3.2-.4.3-.2.7-.2 1.1-.1.1 0 .2.2.3.3 0 .1-.1.3-.2.3-.3.2-.6.2-.8.2z"/><path d="m159.572 1.3c-.3-.1-.6-.3-.9-.4-.3-.2-.4-.3-.2-.5.1-.2.3-.40000001.5-.4s.4.2.5.4c.1.3.1.6.1.9z"/><path d="m151.272 7.4c-.1-.1-.3-.2-.3-.3.2-.5.5-.8 1-.8.1 0 .3.1.3.2.1.1 0 .3 0 .4-.2.4-.6.5-1 .5z"/><path d="m144.972 7.5c0-.1.1-.3.1-.4.1-.4.4-.5.7-.4.2.2.2.4.1.6s-.3.3-.4.5c0 0-.2.1-.2 0-.2-.1-.3-.2-.3-.3z"/><path d="m138.972 1.6c-.3.2-.7.3-1 .2 0 0-.1-.1-.1-.2s0-.2.1-.2c.3-.3.6-.1 1 .2z"/><path d="m168.872 1.5c.1 0 .2 0 .2.1.2.1.3.3.1.4-.1.1-.3.2-.4.1-.1 0-.3-.1-.4-.2.1-.1.2-.2.3-.3 0-.1.1-.1.2-.1z"/><path d="m167.772 6.5c-.2 0-.3 0-.3-.2 0-.1.1-.1.1-.2.2 0 .3 0 .4-.1.2 0 .3 0 .3.2 0 .1 0 .2-.1.2-.1.1-.2.1-.4.1z"/><path d="m153.172 2c.1 0 .2-.2.3-.1.1 0 .3.2.3.3.1.2-.3.4-.5.2-.1-.1-.1-.3-.1-.4z"/><path d="m143.072 4.4c-.2.3-.3.7-.5 1 0 0-.1.1-.2.1-.2 0-.3-.2-.1-.3.2-.3.5-.5.8-.8z"/><path d="m138.572 8.2v-.1h.1z"/><path d="m159.072 1.8c-.1 0-.1.1-.2.1l-.1-.1c0-.2.1-.2.3-.1.1 0 0 .1 0 .1z"/><path d="m159.572 1.3c.3-.2.6-.5 1-.5.1 0 .1.1.2.1v.2c-.5.1-.9.2-1.2.2z"/><path d="m121.672.0999984.2.0999996-.2.1z"/><path d="m136.372.599999c0 .1.1.1.1.2 0 0-.1.1-.2.1-.2 0-.2-.1-.1-.3 0-.1.1 0 .2 0z"/><path d="m165.172 6.6c0-.1-.1-.2-.1-.2.2-.1.3 0 .3.2z"/><path d="m109.772 12.2c0-.1.1-.2.1-.3v.2s-.1 0-.1.1z"/><path d="m144.772 5.5c0-.1 0-.2 0-.4l.1.1c-.1.1-.1.2-.1.3z"/><path d="m144.772 5.4c-.1 0-.2-.1-.4-.1.1.1.3.1.4.1z"/><path d="m109.772 12.2c-.1 0-.2-.1-.3-.1.1 0 .2 0 .3.1z"/><path d="m113.072 6.6h-.2s.2-.1.2 0z"/></g></svg>