<svg viewBox="0 0 207.08 27.73" xmlns="http://www.w3.org/2000/svg"><path d="m170.41 23.88a2.53 2.53 0 0 1 1 .23 5.47 5.47 0 0 0 3.67.7 8.73 8.73 0 0 1 3.38.54 15.07 15.07 0 0 0 5.13 1c1.49 0 2.94.51 4.57.48l1 .07a.94.94 0 0 0 .71-1.58 14.45 14.45 0 0 1 -1.22-1.72c-.12-.31 0-.6.08-1h-.3l.16-.14c.28.17.56.49.85.51a1.62 1.62 0 0 0 1.65-.18l.91-.79c.17-.43.21-.87.39-1.31a1.16 1.16 0 0 1 .33-.57c.16-.14.47-.26.61-.1s.27.31.25.61c-.07 1-1 1.12-1.73 1.36a6.92 6.92 0 0 0 1.92 2.22 9.42 9.42 0 0 0 -.77 1.29 1.31 1.31 0 0 0 .62 1.83 4.19 4.19 0 0 0 1.31.39c.29 0 .74.05.92-.38a1.3 1.3 0 0 0 .07-1c-.12-.45-.54-.78-.8-1.24-.13-.31-.41-.63-.53-.93-.24-.76.28-1.92 1-1.86 1.49-.05 2.82.05 4.31 0 1.44.69 3.1.37 4.39 1a1.6 1.6 0 0 0 1.65-.18 2 2 0 0 0 1-2c0-.15-.26-.47-.4-.63l-.86-.5a3.08 3.08 0 0 1 -.84-.66 22.45 22.45 0 0 1 1.48-2c.65-.85.51-1-.5-1.38a11.9 11.9 0 0 0 -4.55-.77c.42.33 1 .67 1.41 1 .14.16.27.47.11.61s-.33.42-.61.25c-.6 0-1.18-.23-1.77-.27-.15 0-.27-.32-.26-.47l.31-.27c.32-.28 1.06-.23.81-.84a20.34 20.34 0 0 0 -7.27-1.37c-.05.59.06 1.19 0 1.78 0 .3-.34.57-.52 1-.35.72-.95.83-1.83.62a4.74 4.74 0 0 1 -1.65-1.31c-.81-1.1-1.12-1-2.09.15-.3 0-.59-.05-.6.1-.65.7-1.29 1.4-1.94 2.09-.15.14.12.46.11.61h.3c.76-.25 1.53-.64 2.29-.88.15 0 .29 0 .28.17s.27.46 0 .59a57.64 57.64 0 0 0 -5.69 4.8c-2.21-.31-4.27-.61-6.32-1.05a4.66 4.66 0 0 1 -1.34-.5c.34-.57 1.67-.47.86-1.57-.28-.32-.09-.9-.06-1.34-.17-1.8-.18-3.73-1.4-5.31-.28-.31.05-.74.5-.85s.9-.09.66-.85c-.14-.16.18-.43.48-.41s1 .22 1.14.68a5 5 0 0 1 1 2.59c.08.9.18 1.65.27 2.4a1 1 0 0 0 1.27 1 7.9 7.9 0 0 0 1.8-.17c0-.15 0-.3-.13-.31-.27-.32-.56-.49-.69-.79s.34-.57.66-.85c.62-.4.2-.73-.06-1.19-.41-.62-.24-.91.38-1.16s1.21-.36 1.68-.63a3.28 3.28 0 0 1 3.14-.24 25.42 25.42 0 0 0 1.44 2.78c.38-1.16.75-2.18 2-2.68.14 0 .31-.28.47-.42a37.14 37.14 0 0 0 -7.91-1.6c-2.36-.32-4.71-.63-6.91-1.09a44.21 44.21 0 0 0 -7.65-1.14 82.61 82.61 0 0 1 -8.39-1.19l-3.55-.66a2 2 0 0 1 -1-1 1.59 1.59 0 0 0 -2-.89 7 7 0 0 1 -3.45.35 7.08 7.08 0 0 1 -1.76-.27 17.86 17.86 0 0 0 -5.59-.85 3 3 0 0 0 -1.66.33 2.23 2.23 0 0 1 -2.67 0 2.47 2.47 0 0 0 -2.65-.34c-1.22.36-2.57.56-4.08.9-1.59-.71-3.52-.7-5.23-1.72a1.34 1.34 0 0 0 -1 .08 2.44 2.44 0 0 1 -2 .6c-.59 0-1.2.06-1.79 0-.15 0-.58-.19-.57-.34-.11-.45.34-.57.64-.55l.31-.27a22.5 22.5 0 0 1 -3.24-.38c-1.91-.29-3.85-.28-5.6-.7a3.71 3.71 0 0 0 -3.93.91l.16-.14.72.35a30.26 30.26 0 0 0 -3.55-.25 23.2 23.2 0 0 1 -3.1-.37.48.48 0 0 1 -.28-.17c-.14-.16 0-.44.32-.42a28.91 28.91 0 0 1 5.24-.52.66.66 0 0 0 .48-.41c0-.15-.12-.46-.26-.47a3.64 3.64 0 0 0 -1.76-.3c-1.48-.11-2.82 0-4.3-.16-1.49 0-3.13.07-4.62.12-3 .08-6 .17-8.94.4l-3.14.22c-3.42.05-6.84 0-10.26 0a19.55 19.55 0 0 0 -2.84.26 20.73 20.73 0 0 1 -4.19.45 2.5 2.5 0 0 0 -1 .07c-2 1.05-4.2.59-6.29.59a64.73 64.73 0 0 0 -10.66.89c-1.2.06-2.27.58-3.42-.09a30.2 30.2 0 0 0 -3.87.16c-2.57.56-5.09.53-7.66 1.09-1.22.36-2.57.56-3.78.92a20.51 20.51 0 0 1 -5.87.92 12.56 12.56 0 0 0 -3.45.5l-2.73.7a2.46 2.46 0 0 0 -1.54.8 7.19 7.19 0 0 1 -3.66 1.37 5.13 5.13 0 0 0 -3.48 1.49 3.55 3.55 0 0 1 -1.25.81c-2.52 0-4.42 1.46-6.7 2.19a3.11 3.11 0 0 0 -1.31 1.14 21.55 21.55 0 0 1 -1.74 3.11v.3a2.92 2.92 0 0 0 1.76 2.5c.43.18.87.21 1.31.39a.94.94 0 0 1 .5 1.23 2.76 2.76 0 0 1 -.37 1 1 1 0 0 0 .52 1.08 2.05 2.05 0 0 1 1.13.82c1.06 1.86 2.8 2.43 4.9 2.14.75-.1 1.37-.35 2.12-.45a58.35 58.35 0 0 1 10.41-2.22 63.77 63.77 0 0 1 7.35-.81c.44 0 .9-.23 1.35-.2 1.63 0 3.19-1 4.81-.85 1.62.27 3.31-.5 4.93-.24a6.33 6.33 0 0 1 1.5-.19 110.41 110.41 0 0 1 12-1.08c4.33-.28 8.67-.72 13.15-1 3.14-.22 6.13-.46 9.24-.38l3.85-.15a3.62 3.62 0 0 1 1.79 0 21.79 21.79 0 0 0 5.35-.07c.3 0 .75-.09 1.05-.07a23.09 23.09 0 0 0 6.35.14c2.09-.15 4.31 0 6.4-.14h.74c2.51.18 5.21-.07 7.72.11 2.68 0 5.19.22 7.86.26 4.6.18 9.2.21 13.78.69a35.17 35.17 0 0 0 5.62.4l.74.05c2.77.79 5.62.4 8.43.6a41.7 41.7 0 0 1 7.37.83 23.2 23.2 0 0 0 3.1.37l11.65 1.28a2.52 2.52 0 0 0 2-.61.15.15 0 0 1 .16-.13zm-6.94-6.88c.17-.29 0-.3-.13-.16l.13.16c.15 0 .16-.14.31-.13-.16.13-.16.13-.31.13zm-4.56-.63c.33-.42.81-1 1.14-1.4-.74-.06-1.16-.38-1-1.11a1.4 1.4 0 0 0 -.77-1.69c-.14-.16-.43-.18-.57-.34s0-.59 0-.59a2.88 2.88 0 0 1 3.53.55c.14.16.14.16.13.3-.36.87.79 1.4.43 2.26-.61.26-1.23.51-2 .76a2.88 2.88 0 0 1 .85.65.57.57 0 0 1 -.21.88c-.6-.05-1.18-.24-1.62-.27a2.74 2.74 0 0 1 -1.85.91.84.84 0 0 1 -1-.66.85.85 0 0 1 .66-1 1.85 1.85 0 0 1 2.28.75zm-20.1-7.82c.73.2 1.32.24 1.9.43.44 0 .7.64.66 1.09a1 1 0 0 1 -.64.69 22.36 22.36 0 0 1 -5.45-.68c-.15 0-.27-.47-.11-.6a1.82 1.82 0 0 1 .79-.69 18.37 18.37 0 0 1 2.85-.24zm31.36 4.17c-.21.87-1.14 1.4-1.35 2.28 0 .15-.62.4-.92.38s-.57-.34-.86-.51c-.14 0-.13-.16-.12-.3.24-1.32-.48-1.67-1.51-1.75a1.08 1.08 0 0 1 -.57-.34c-.15 0-.14-.15-.13-.3s0-.3.17-.29a5.14 5.14 0 0 1 2.72-.69 2.74 2.74 0 0 1 1 .37 16.91 16.91 0 0 0 1.57 1.15zm31.28 7.43-.06.89c0 .3-.5.71-.78.54l-2.34-.58a.54.54 0 0 1 -.12-.31 16.75 16.75 0 0 1 1.21-2.44c0-.15.16-.14.31-.13a4.4 4.4 0 0 1 1.32.25c.43.18.84.65.66 1.08a2.53 2.53 0 0 1 -.2.7zm-111.37-18.35a16.7 16.7 0 0 1 6.66.47c-2.83.1-4.74.26-6.66-.47zm59.28 8.84c0 .14-.16.13-.17.28a1.8 1.8 0 0 1 -1.92-.14c-.15 0-.14-.15-.13-.3s0-.3.17-.29a2.22 2.22 0 0 1 1.93 0 .74.74 0 0 0 .12.45zm17.72 8c.13.16.43.18.57.34s0 .44-.05.59c-.62.4-1.37.5-1.48 0a.9.9 0 0 1 .19-.58c0-.15.15-.14.31-.27a.55.55 0 0 0 .46-.13zm7.49-.8c.44 0 .7.49.4.62a.89.89 0 0 1 -.6.11 1.08 1.08 0 0 1 -.57-.34c-.13-.36.32-.47.77-.44zm-22.52-7.41c.14.16.44.18.57.34a.88.88 0 0 1 -.19.58.56.56 0 0 1 -.7-.49c-.14-.21.17-.34.32-.48zm20.16 9.17c.3 0 .43.18.26.47 0 .14-.16.28-.15.13-.15 0-.44-.18-.43-.32s.02-.35.32-.33zm32.88 1.75v.45a.42.42 0 0 1 -.73-.05v-.3c.13-.19.43-.17.73-.15zm-75.54-12.28c-.15 0-.45.12-.6.11-.29-.17-.26-.47 0-.44.16-.14.45 0 .59 0zm-6.77-.93c0-.14-.14-.15-.13-.3s.16-.14.31-.13c.3 0 .43.18.12.46zm29.4 8.79.13.31h-.3zm20.41-.62c-.31.13-.45.12-.28-.17a.45.45 0 0 0 .3-.13z" fill="#efed70"/></svg>